<?xml version="1.0" encoding="UTF-8"?><svg id="Calque_2" xmlns="http://www.w3.org/2000/svg" viewBox="0 0 800 288.27"><defs><style>.cls-1{fill:#fff;}</style></defs><g id="Calque_1-2"><path class="cls-1" d="M148.77,133.83c-2.7-14.53-21.7-22.53-40.57-12.27l4.87,16.6,7.67,24.57,3.47,11.17c14.1-9.07,28.33-19.97,24.57-40.1v.03ZM130.03,156.17c-2.15-7.08-4.34-14.15-6.57-21.2l-1.97-6.77c3.69-.8,7.54-.41,11,1.1,1.77.87,4.87,2.8,5.53,6.53,1.57,8.33-1.23,14.3-8,20.27v.07ZM433.63,110.77c-10.48-9.66-26.8-8.99-36.46,1.49s-8.99,26.8,1.49,36.46c.9.83,1.86,1.59,2.86,2.29l33.93-38.43c-.59-.62-1.2-1.22-1.83-1.8h0ZM401.6,137.83c-4.42-8.07-1.47-18.2,6.6-22.63,4.3-2.36,9.42-2.7,14-.94l-20.6,23.57ZM653.3,145.33c.31,1.14.46,2.32.43,3.5-.33,7.17-7.1,12.73-15.13,12.33-8.03-.27-14.33-6.37-14-13.5.23-6.77,6.23-12.07,13.63-12.4-1.45-.33-2.92-.52-4.4-.57-13.5-.57-24.5,9-24.93,20.87-.57,12.67,9.63,23.07,22.87,23.63,13.53.5,24.5-9.07,25-21.7.14-4.31-1.06-8.56-3.43-12.17M244.83,159.87c0,7.2-6.57,13-14.6,13s-14.6-5.77-14.6-13c0-6.73,5.77-12.27,13.13-12.93-1.45-.27-2.92-.4-4.4-.4-13.47,0-24.1,10-24.1,21.87,0,12.73,10.67,22.67,23.87,22.67s24.1-9.93,24.1-22.67c-.02-4.3-1.41-8.48-3.97-11.93.33,1,.57,2.17.57,3.4M737.1,87.03l-6,24.63-5.53-27.33-73.93-16.23.53,41.1,11.13,2.5-.8,7.43-.33-.23c-13.8-7.27-30.9-8-47-1.93-5.43,2-10.47,4.77-15,8.07l-11.17-70.4h-49.17l-1.33,8.13h-51.77l-5.9,36.17-4.33-5.3c-12.47-15.28-31.11-24.2-50.83-24.33l43.93-23.63L439,0l-55.43,63.77,9.57,11.67c-8.3,3.35-15.92,8.2-22.47,14.3l-47.47-42.13-16.57,31.77.63-30.53-74.2,23.73,1.9,39.87,12.63-3.27,1.87,20.17c-14.43-6.43-31.8-6.33-47.87.47-4.7,2.05-9.16,4.61-13.3,7.63,2.94-11.73,2.04-24.09-2.57-35.27-5.56-12.71-15.12-23.24-27.23-30-8.66-5.66-18.54-9.18-28.83-10.27-25.67-4.5-56.53.1-86.87,13.07-10.74,4.51-21.08,9.89-30.93,16.1l-11.87,7.53,7.17,12.1,22.23,37.57s6.8,11.53,6.83,11.5l12.03-5.9,1.67-.77,55.27,123.33,5.33,11.83,12.33-3.93,29.87-9.6,13.13-4.17-3.47-13.33-15.87-60.97c4.57-3.37,8.8-6.97,12.77-10.7-.9,7.3-.43,14.67,1.57,21.73,4.13,14.77,13.87,26.43,27.27,32.87,14.5,7,32.17,7,48.53.07,8.23-3.47,15.57-8.57,21.7-14.63l2.27,24.27,52.33-7.7-.07-46.9,109.4,54v-52.33c15.83-1.58,31.15-6.53,44.9-14.53l-4.6,28.1,59,9.3,3.23-21.23,15.37,28.47,9.43-18.17,3.47,29.83,66.83,11.73-3.53-22.47c11.93,1.28,23.98-1.02,34.6-6.6l-2.67,23.93,44.53,6.3.33,18.23,46.33,14.6,60.47-182.13-62.9-15.27ZM475.8,114.03l3.07-3.23-3.73,23-9.63-8.73,10.3-11.03ZM436.57,20.27l16.23,22.03-46.33,22.97-3.23-4.87,33.33-40.13ZM129.83,189.97l18.5,70.93-29.93,9.57-61.37-137.07c-3.33,1.77-9.47,4.67-15.17,7.43l-22.2-37.53c8.87-5.63,18.53-10.63,28.83-15,28.93-12.3,56.57-16,78.67-12.07,7.77.9,16.03,3.17,23.33,8,9.93,5.6,17.5,13.53,21.9,23.7,10.67,24.67-7.17,60.23-42.53,82.03h-.03ZM267.37,177.37c-.33,10.6-4.23,21.13-10.7,30.1-6.33,8.87-14.96,15.84-24.97,20.17-25.97,11-51.9,0-58.8-24.67-6.77-23.8,8.87-52.17,34-63,16.1-6.73,32.2-5.17,43.73,2.67,7.1,4.87,12.57,12.13,15.1,21.23,1.24,4.4,1.79,8.96,1.63,13.53v-.03ZM408.57,227.5l-108.47-54.3.2,56.9-28.1,3.83-1.97-23.43c8.67-14.87,11.83-32.4,7.33-48.47-2.38-8.59-6.98-16.41-13.33-22.67l-4.03-47.77-12.57,3.27-.57-12.07,45.07-13.47,2.77,46.53,33.23-46.67,32.47,30.9-45.4,47.87,42.67,16.9c4.73,9,12,16.67,21.13,22.33,8.8,5.43,18.93,8.67,29.63,9.7v30.6h-.07ZM352.23,148.83l-15.13-5.8,14.1-13.67c-.63,6.27-.33,12.83,1,19.47h.03ZM470.3,163.07c-10.4,8.63-22.33,14.23-37.97,18-3.31.8-6.68,1.37-10.07,1.7-24.9,2.43-45.8-9-53.73-27.53-.98-2.25-1.75-4.58-2.3-6.97-3.67-15.6-.53-29.57,7.17-40.5,2.25-3.2,4.88-6.12,7.83-8.7,7.75-6.75,17.05-11.48,27.07-13.77,23.73-5.7,44.63,1.53,57.43,17.23l-45.17,48.13c3.87.32,7.76-.05,11.5-1.1,10.77-2.63,16.8-8.33,22.1-14.53l18.07,16.2,5.47,5c-2.35,2.4-4.82,4.68-7.4,6.83h0ZM566.2,227.3l-9.8-65.13-13.93,35.93-20.83-44.93h-.23l-8.2,52-34.7-6,4.87-29c1.31-1.24,2.6-2.51,3.87-3.8l11.27-11.6-10.97-9.8,11.67-69.1h35l8.73,47.87,9.8-55.43h25.07l10.4,67.53c-13.2,15.03-19.67,35.33-15.2,53.83,3.5,15.47,14.23,28.31,28.83,34.5l1.33,8.77-36.97-5.63ZM652.7,206.07c-3.88,2.76-8.11,5-12.57,6.67-8.17,3.27-17.11,4.16-25.77,2.57-5.37-1.02-10.46-3.18-14.93-6.33-7.26-5.31-12.35-13.06-14.33-21.83-2.67-11.2-.23-23.2,5.8-33.73,3.03-5.13,6.9-9.93,11.47-14.1,5.07-4.57,11-8.33,17.57-10.83,15.3-5.73,30.4-3.73,41,3.87,7.09,5.09,12.09,12.59,14.07,21.1,3.27,13.53-.6,27.93-9.13,39.57-3.66,5.03-8.11,9.44-13.17,13.07h0ZM730.8,267.43l-25.67-7.63-2.2-94.6-12.93,73-28-4.5,2.07-21c18.23-15.47,27.93-39.83,22.63-61.87-2.21-9.54-7.26-18.18-14.47-24.8l2.37-24.77-10.57-2.83.67-13.2,48.27,9.67,16.23,76.93,16.63-68.97,36.67,8.13-51.7,156.43Z"/></g></svg>